:SAMPLES-PER-SECOND 30
:FULLY-SPECIFIED
:DEGREES
724
root  -39.7153 40.6178 -13.5628 171.217 41.1637 171.986
RightUpLeg  -21.9756 -7.60015 -2.28602
RightLeg  45.9991 -3.90878 -4.65245
RightFoot  2.21314 0.00980995 0.0507806
RightToes  -4.65663e-010 0 -3.6325e-017
Spine  11.281 -2.08115 -4.56177
Spine1  1.85666 -2.95602 1.20938
HEad  -13.4137 -5.53371 0.371501
LeftShoulder1  8.5951 -12.5249 -46.7843
LeftArm  -10.3573 8.4164 -12.2592
LeftForeArm  19.0622 -14.7441 -4.60671
LeftHand  -0.244104 0.0205437 5.32207
RightShoulder  5.28308 8.60944 37.5854
RightArm  1.58711 -18.9312 27.9752
RightForeArm  7.54884 12.8923 7.23559
RightHand  -0.949011 1.76401 -15.51
LeftUpLeg  5.40404 6.87614 0.583115
LeftLeg  8.47665 20.4911 -3.93183
LeftFoot  -8.06871 0.212588 -5.78257
LeftToes  -7.27628e-011 -1.6005e-012 -1.37987e-011
725
root  -39.2906 40.457 -14.7083 170.55 42.9031 171.555
RightUpLeg  -22.3758 -11.8655 0.0159326
RightLeg  35.4223 -3.85001 -3.24901
RightFoot  0.248925 0.0107633 -0.0807835
RightToes  -4.65663e-010 0 -3.6325e-017
Spine  11.6975 -2.29503 -5.25333
Spine1  2.08061 -3.32783 1.59595
HEad  -13.7949 -5.46726 0.659206
LeftShoulder1  8.57451 -12.5515 -46.5905
LeftArm  -10.4242 6.78193 -11.156
LeftForeArm  17.679 -16.5754 -4.37229
LeftHand  -0.244104 0.0205437 5.32207
RightShoulder  5.23945 8.51808 37.555
RightArm  -0.0352103 -19.1401 27.5759
RightForeArm  8.04659 12.1739 7.21842
RightHand  -1.02772 2.23807 -15.7647
LeftUpLeg  8.0434 6.67711 -0.400063
LeftLeg  7.9809 22.3905 -3.68629
LeftFoot  -10.0909 0.129804 -6.33429
LeftToes  -7.27628e-011 -1.6005e-012 -1.37987e-011
726
root  -38.7727 40.2418 -15.8984 169.646 44.6639 170.616
RightUpLeg  -22.0471 -18.1827 2.84562
RightLeg  23.2595 -2.99733 -1.72516
RightFoot  -0.197579 -0.0259239 0.251554
RightToes  -4.65663e-010 0 -3.6325e-017
Spine  11.4336 -2.40752 -5.93693
Spine1  2.684 -3.50738 1.82182
HEad  -13.9921 -5.69167 0.78582
LeftShoulder1  8.58267 -12.641 -46.3708
LeftArm  -11.1191 5.366 -10.4544
LeftForeArm  17.6823 -18.2664 -4.08789
LeftHand  -0.244104 0.0205437 5.32207
RightShoulder  5.24272 8.48962 37.6807
RightArm  -2.81869 -19.4033 27.5234
RightForeArm  8.43583 10.9393 7.08411
RightHand  -1.11877 2.58599 -16.4049
LeftUpLeg  10.7356 6.11892 -2.07754
LeftLeg  7.11514 24.9038 -3.35585
LeftFoot  -11.4071 0.0651141 -6.68025
LeftToes  -7.27628e-011 -1.6005e-012 -1.37987e-011
727
root  -38.1674 40.0343 -17.0899 169.002 46.1179 169.635
RightUpLeg  -20.6153 -19.5741 3.69415
RightLeg  9.90521 -8.10028 1.70781
RightFoot  -0.0882285 0.0295893 -0.313536
RightToes  -4.65663e-010 0 -3.6325e-017
Spine  10.7237 -2.54315 -6.56967
Spine1  3.23918 -3.76541 2.51348
HEad  -13.8364 -6.12232 0.734265
LeftShoulder1  8.64198 -12.7606 -46.3477
LeftArm  -12.1787 4.4683 -10.0663
LeftForeArm  18.3794 -19.865 -3.87083
LeftHand  -0.244104 0.0205437 5.32207
RightShoulder  5.33533 8.62055 37.9615
RightArm  -5.39799 -20.1306 27.5159
RightForeArm  7.76123 9.82428 6.82367
RightHand  -1.25655 3.03547 -17.4277
LeftUpLeg  13.4079 5.46565 -3.77951
LeftLeg  5.55125 27.2019 -3.53076
LeftFoot  -12.2373 0.0174441 -7.06176
LeftToes  -7.27628e-011 -1.6005e-012 -1.37987e-011
728
root  -37.4478 39.7242 -18.3039 168.323 47.0638 168.575
RightUpLeg  -17.4002 -5.58297 -1.95314
RightLeg  -2.65486 -26.1799 8.91251
RightFoot  -0.898835 0.124616 -1.39953
RightToes  -4.65663e-010 0 -3.6325e-017
Spine  10.0007 -2.78555 -7.26083
Spine1  3.38122 -4.10643 3.21707
HEad  -13.5272 -6.75735 0.55925
LeftShoulder1  8.70585 -12.8511 -46.4345
LeftArm  -12.7821 3.88392 -10.0137
LeftForeArm  18.6603 -21.2066 -3.82976
LeftHand  -0.244104 0.0205437 5.32207
RightShoulder  5.46118 8.76867 38.4375
RightArm  -7.33586 -21.2805 27.4996
RightForeArm  7.32609 9.25371 6.45625
RightHand  -1.38514 3.56169 -18.0873
LeftUpLeg  15.6817 5.35397 -4.99481
LeftLeg  5.32584 28.1016 -3.81117
LeftFoot  -13.9273 -0.103644 -8.17753
LeftToes  -7.27628e-011 -1.6005e-012 -1.37987e-011
729
root  -36.6101 39.3502 -19.5627 167.477 47.7104 167.787
RightUpLeg  -17.3924 -5.14649 -1.44791
RightLeg  -5.84968 -24.9678 9.23743
RightFoot  -2.66361 0.0275587 -0.635483
RightToes  -4.65663e-010 0 -3.6325e-017
Spine  9.45033 -3.11839 -7.50281
Spine1  3.5745 -4.44904 3.53031
HEad  -13.5496 -7.45984 0.242849
LeftShoulder1  8.72115 -12.8765 -46.4443
LeftArm  -12.4428 3.37783 -10.4746
LeftForeArm  18.1581 -22.1616 -3.91285
LeftHand  -0.244104 0.0205437 5.32207
RightShoulder  5.50668 8.76877 38.7924
RightArm  -8.58724 -22.4782 27.8056
RightForeArm  7.97641 9.38562 6.10102
RightHand  -1.3679 3.66833 -17.6536
LeftUpLeg  17.8752 5.88294 -5.36708
LeftLeg  6.81681 27.6639 -3.82794
LeftFoot  -15.6239 -0.263196 -9.55423
LeftToes  -7.27628e-011 -1.6005e-012 -1.37987e-011
